<mxfile host="app.diagrams.net" agent="Mozilla/5.0 (Windows NT 10.0; Win64; x64) AppleWebKit/537.36 (KHTML, like Gecko) Chrome/141.0.0.0 Safari/537.36 Edg/141.0.0.0" version="27.2.0">
  <diagram name="第 1 页" id="ht69kfsUbJa5u0ixjsvl">
    <mxGraphModel dx="1273" dy="604" grid="0" gridSize="10" guides="1" tooltips="1" connect="1" arrows="1" fold="1" page="1" pageScale="1" pageWidth="827" pageHeight="1169" math="0" shadow="0">
      <root>
        <mxCell id="0" />
        <mxCell id="1" parent="0" />
        <mxCell id="3bQ-jUhXgWFOpYzX4cHb-1" value="" style="ellipse;whiteSpace=wrap;html=1;aspect=fixed;fillColor=#6180FF;" vertex="1" parent="1">
          <mxGeometry x="254" y="109" width="38" height="38" as="geometry" />
        </mxCell>
        <mxCell id="3bQ-jUhXgWFOpYzX4cHb-2" value="" style="ellipse;whiteSpace=wrap;html=1;aspect=fixed;fillColor=#6180FF;" vertex="1" parent="1">
          <mxGeometry x="123" y="171" width="38" height="38" as="geometry" />
        </mxCell>
        <mxCell id="3bQ-jUhXgWFOpYzX4cHb-3" value="" style="ellipse;whiteSpace=wrap;html=1;aspect=fixed;fillColor=#6180FF;" vertex="1" parent="1">
          <mxGeometry x="399" y="167" width="38" height="38" as="geometry" />
        </mxCell>
        <mxCell id="3bQ-jUhXgWFOpYzX4cHb-4" value="" style="ellipse;whiteSpace=wrap;html=1;aspect=fixed;fillColor=#6180FF;" vertex="1" parent="1">
          <mxGeometry x="49" y="241" width="38" height="38" as="geometry" />
        </mxCell>
        <mxCell id="3bQ-jUhXgWFOpYzX4cHb-5" value="" style="ellipse;whiteSpace=wrap;html=1;aspect=fixed;fillColor=#6180FF;" vertex="1" parent="1">
          <mxGeometry x="177" y="245" width="38" height="38" as="geometry" />
        </mxCell>
        <mxCell id="3bQ-jUhXgWFOpYzX4cHb-6" value="" style="ellipse;whiteSpace=wrap;html=1;aspect=fixed;fillColor=#6180FF;" vertex="1" parent="1">
          <mxGeometry x="323" y="241" width="38" height="38" as="geometry" />
        </mxCell>
        <mxCell id="3bQ-jUhXgWFOpYzX4cHb-7" value="" style="ellipse;whiteSpace=wrap;html=1;aspect=fixed;fillColor=#6180FF;" vertex="1" parent="1">
          <mxGeometry x="469" y="241" width="38" height="38" as="geometry" />
        </mxCell>
        <mxCell id="3bQ-jUhXgWFOpYzX4cHb-8" value="" style="ellipse;whiteSpace=wrap;html=1;aspect=fixed;fillColor=#6180FF;" vertex="1" parent="1">
          <mxGeometry x="15" y="347" width="38" height="38" as="geometry" />
        </mxCell>
        <mxCell id="3bQ-jUhXgWFOpYzX4cHb-9" value="" style="ellipse;whiteSpace=wrap;html=1;aspect=fixed;fillColor=#6180FF;" vertex="1" parent="1">
          <mxGeometry x="85" y="347" width="38" height="38" as="geometry" />
        </mxCell>
        <mxCell id="3bQ-jUhXgWFOpYzX4cHb-10" value="" style="ellipse;whiteSpace=wrap;html=1;aspect=fixed;fillColor=#6180FF;" vertex="1" parent="1">
          <mxGeometry x="139" y="347" width="38" height="38" as="geometry" />
        </mxCell>
        <mxCell id="3bQ-jUhXgWFOpYzX4cHb-11" value="" style="ellipse;whiteSpace=wrap;html=1;aspect=fixed;fillColor=#6180FF;" vertex="1" parent="1">
          <mxGeometry x="209" y="347" width="38" height="38" as="geometry" />
        </mxCell>
        <mxCell id="3bQ-jUhXgWFOpYzX4cHb-12" value="" style="ellipse;whiteSpace=wrap;html=1;aspect=fixed;fillColor=#6180FF;" vertex="1" parent="1">
          <mxGeometry x="282" y="347" width="38" height="38" as="geometry" />
        </mxCell>
        <mxCell id="3bQ-jUhXgWFOpYzX4cHb-13" value="" style="ellipse;whiteSpace=wrap;html=1;aspect=fixed;fillColor=#6180FF;" vertex="1" parent="1">
          <mxGeometry x="358" y="347" width="38" height="38" as="geometry" />
        </mxCell>
        <mxCell id="3bQ-jUhXgWFOpYzX4cHb-14" value="" style="ellipse;whiteSpace=wrap;html=1;aspect=fixed;fillColor=#6180FF;" vertex="1" parent="1">
          <mxGeometry x="429" y="347" width="38" height="38" as="geometry" />
        </mxCell>
        <mxCell id="3bQ-jUhXgWFOpYzX4cHb-15" value="" style="ellipse;whiteSpace=wrap;html=1;aspect=fixed;fillColor=#6180FF;" vertex="1" parent="1">
          <mxGeometry x="507" y="347" width="38" height="38" as="geometry" />
        </mxCell>
        <mxCell id="3bQ-jUhXgWFOpYzX4cHb-16" value="" style="endArrow=classic;html=1;rounded=0;exitX=0;exitY=0.5;exitDx=0;exitDy=0;entryX=1;entryY=0;entryDx=0;entryDy=0;" edge="1" parent="1" source="3bQ-jUhXgWFOpYzX4cHb-1" target="3bQ-jUhXgWFOpYzX4cHb-2">
          <mxGeometry width="50" height="50" relative="1" as="geometry">
            <mxPoint x="251" y="317" as="sourcePoint" />
            <mxPoint x="301" y="267" as="targetPoint" />
          </mxGeometry>
        </mxCell>
        <mxCell id="3bQ-jUhXgWFOpYzX4cHb-17" value="" style="endArrow=classic;html=1;rounded=0;exitX=1;exitY=0.5;exitDx=0;exitDy=0;entryX=0;entryY=0.5;entryDx=0;entryDy=0;" edge="1" parent="1" source="3bQ-jUhXgWFOpYzX4cHb-1" target="3bQ-jUhXgWFOpYzX4cHb-3">
          <mxGeometry width="50" height="50" relative="1" as="geometry">
            <mxPoint x="251" y="317" as="sourcePoint" />
            <mxPoint x="301" y="267" as="targetPoint" />
          </mxGeometry>
        </mxCell>
        <mxCell id="3bQ-jUhXgWFOpYzX4cHb-19" value="&lt;font style=&quot;font-size: 18px; color: rgb(255, 65, 19);&quot;&gt;x&lt;sub style=&quot;&quot;&gt;1&lt;/sub&gt;=T&lt;/font&gt;" style="text;html=1;align=center;verticalAlign=middle;whiteSpace=wrap;rounded=0;" vertex="1" parent="1">
          <mxGeometry x="172" y="128" width="60" height="30" as="geometry" />
        </mxCell>
        <mxCell id="3bQ-jUhXgWFOpYzX4cHb-20" value="&lt;font style=&quot;font-size: 18px; color: rgb(255, 65, 19);&quot;&gt;x&lt;sub style=&quot;&quot;&gt;1&lt;/sub&gt;=F&lt;/font&gt;" style="text;html=1;align=center;verticalAlign=middle;whiteSpace=wrap;rounded=0;" vertex="1" parent="1">
          <mxGeometry x="329" y="134" width="60" height="30" as="geometry" />
        </mxCell>
        <mxCell id="3bQ-jUhXgWFOpYzX4cHb-21" value="" style="endArrow=classic;html=1;rounded=0;exitX=0;exitY=1;exitDx=0;exitDy=0;" edge="1" parent="1" source="3bQ-jUhXgWFOpYzX4cHb-2" target="3bQ-jUhXgWFOpYzX4cHb-4">
          <mxGeometry width="50" height="50" relative="1" as="geometry">
            <mxPoint x="601" y="343" as="sourcePoint" />
            <mxPoint x="651" y="293" as="targetPoint" />
          </mxGeometry>
        </mxCell>
        <mxCell id="3bQ-jUhXgWFOpYzX4cHb-22" value="" style="endArrow=classic;html=1;rounded=0;exitX=1;exitY=1;exitDx=0;exitDy=0;entryX=0.5;entryY=0;entryDx=0;entryDy=0;" edge="1" parent="1" source="3bQ-jUhXgWFOpYzX4cHb-2" target="3bQ-jUhXgWFOpYzX4cHb-5">
          <mxGeometry width="50" height="50" relative="1" as="geometry">
            <mxPoint x="601" y="343" as="sourcePoint" />
            <mxPoint x="651" y="293" as="targetPoint" />
          </mxGeometry>
        </mxCell>
        <mxCell id="3bQ-jUhXgWFOpYzX4cHb-23" value="" style="endArrow=classic;html=1;rounded=0;exitX=0;exitY=1;exitDx=0;exitDy=0;entryX=1;entryY=0;entryDx=0;entryDy=0;" edge="1" parent="1" source="3bQ-jUhXgWFOpYzX4cHb-3" target="3bQ-jUhXgWFOpYzX4cHb-6">
          <mxGeometry width="50" height="50" relative="1" as="geometry">
            <mxPoint x="298" y="231" as="sourcePoint" />
            <mxPoint x="323" y="295" as="targetPoint" />
          </mxGeometry>
        </mxCell>
        <mxCell id="3bQ-jUhXgWFOpYzX4cHb-24" value="" style="endArrow=classic;html=1;rounded=0;exitX=1;exitY=1;exitDx=0;exitDy=0;" edge="1" parent="1" source="3bQ-jUhXgWFOpYzX4cHb-3" target="3bQ-jUhXgWFOpYzX4cHb-7">
          <mxGeometry width="50" height="50" relative="1" as="geometry">
            <mxPoint x="425" y="232" as="sourcePoint" />
            <mxPoint x="450" y="296" as="targetPoint" />
          </mxGeometry>
        </mxCell>
        <mxCell id="3bQ-jUhXgWFOpYzX4cHb-25" value="" style="endArrow=classic;html=1;rounded=0;exitX=0.5;exitY=1;exitDx=0;exitDy=0;entryX=0.5;entryY=0;entryDx=0;entryDy=0;" edge="1" parent="1" source="3bQ-jUhXgWFOpYzX4cHb-4" target="3bQ-jUhXgWFOpYzX4cHb-8">
          <mxGeometry width="50" height="50" relative="1" as="geometry">
            <mxPoint x="38" y="340" as="sourcePoint" />
            <mxPoint x="63" y="404" as="targetPoint" />
          </mxGeometry>
        </mxCell>
        <mxCell id="3bQ-jUhXgWFOpYzX4cHb-26" value="" style="endArrow=classic;html=1;rounded=0;exitX=0.5;exitY=1;exitDx=0;exitDy=0;entryX=0.5;entryY=0;entryDx=0;entryDy=0;" edge="1" parent="1" source="3bQ-jUhXgWFOpYzX4cHb-4" target="3bQ-jUhXgWFOpYzX4cHb-9">
          <mxGeometry width="50" height="50" relative="1" as="geometry">
            <mxPoint x="73" y="339" as="sourcePoint" />
            <mxPoint x="98" y="403" as="targetPoint" />
          </mxGeometry>
        </mxCell>
        <mxCell id="3bQ-jUhXgWFOpYzX4cHb-27" value="" style="endArrow=classic;html=1;rounded=0;exitX=0.5;exitY=1;exitDx=0;exitDy=0;entryX=0.5;entryY=0;entryDx=0;entryDy=0;" edge="1" parent="1" source="3bQ-jUhXgWFOpYzX4cHb-5" target="3bQ-jUhXgWFOpYzX4cHb-10">
          <mxGeometry width="50" height="50" relative="1" as="geometry">
            <mxPoint x="149" y="313" as="sourcePoint" />
            <mxPoint x="174" y="377" as="targetPoint" />
          </mxGeometry>
        </mxCell>
        <mxCell id="3bQ-jUhXgWFOpYzX4cHb-28" value="" style="endArrow=classic;html=1;rounded=0;exitX=0.5;exitY=1;exitDx=0;exitDy=0;" edge="1" parent="1" source="3bQ-jUhXgWFOpYzX4cHb-5" target="3bQ-jUhXgWFOpYzX4cHb-11">
          <mxGeometry width="50" height="50" relative="1" as="geometry">
            <mxPoint x="189" y="324" as="sourcePoint" />
            <mxPoint x="214" y="388" as="targetPoint" />
          </mxGeometry>
        </mxCell>
        <mxCell id="3bQ-jUhXgWFOpYzX4cHb-29" value="" style="endArrow=classic;html=1;rounded=0;exitX=0.5;exitY=1;exitDx=0;exitDy=0;entryX=0.5;entryY=0;entryDx=0;entryDy=0;" edge="1" parent="1" source="3bQ-jUhXgWFOpYzX4cHb-6" target="3bQ-jUhXgWFOpYzX4cHb-12">
          <mxGeometry width="50" height="50" relative="1" as="geometry">
            <mxPoint x="315" y="332" as="sourcePoint" />
            <mxPoint x="340" y="396" as="targetPoint" />
          </mxGeometry>
        </mxCell>
        <mxCell id="3bQ-jUhXgWFOpYzX4cHb-30" value="" style="endArrow=classic;html=1;rounded=0;exitX=0.5;exitY=1;exitDx=0;exitDy=0;entryX=0.5;entryY=0;entryDx=0;entryDy=0;" edge="1" parent="1" source="3bQ-jUhXgWFOpYzX4cHb-6" target="3bQ-jUhXgWFOpYzX4cHb-13">
          <mxGeometry width="50" height="50" relative="1" as="geometry">
            <mxPoint x="347" y="326" as="sourcePoint" />
            <mxPoint x="372" y="390" as="targetPoint" />
          </mxGeometry>
        </mxCell>
        <mxCell id="3bQ-jUhXgWFOpYzX4cHb-31" value="" style="endArrow=classic;html=1;rounded=0;exitX=0.5;exitY=1;exitDx=0;exitDy=0;entryX=0.5;entryY=0;entryDx=0;entryDy=0;" edge="1" parent="1" source="3bQ-jUhXgWFOpYzX4cHb-7" target="3bQ-jUhXgWFOpYzX4cHb-14">
          <mxGeometry width="50" height="50" relative="1" as="geometry">
            <mxPoint x="488" y="283" as="sourcePoint" />
            <mxPoint x="458" y="347" as="targetPoint" />
          </mxGeometry>
        </mxCell>
        <mxCell id="3bQ-jUhXgWFOpYzX4cHb-32" value="" style="endArrow=classic;html=1;rounded=0;exitX=0.5;exitY=1;exitDx=0;exitDy=0;entryX=0.5;entryY=0;entryDx=0;entryDy=0;" edge="1" parent="1" source="3bQ-jUhXgWFOpYzX4cHb-7" target="3bQ-jUhXgWFOpYzX4cHb-15">
          <mxGeometry width="50" height="50" relative="1" as="geometry">
            <mxPoint x="487" y="304" as="sourcePoint" />
            <mxPoint x="512" y="368" as="targetPoint" />
          </mxGeometry>
        </mxCell>
        <mxCell id="3bQ-jUhXgWFOpYzX4cHb-33" value="&lt;font style=&quot;font-size: 18px; color: rgb(255, 65, 19);&quot;&gt;x&lt;/font&gt;&lt;font style=&quot;color: rgb(255, 65, 19); font-size: 15px;&quot;&gt;&lt;sub&gt;2&lt;/sub&gt;&lt;/font&gt;&lt;font style=&quot;color: rgb(255, 65, 19);&quot;&gt;&lt;span style=&quot;font-size: 18px;&quot;&gt;=T&lt;/span&gt;&lt;/font&gt;" style="text;html=1;align=center;verticalAlign=middle;whiteSpace=wrap;rounded=0;" vertex="1" parent="1">
          <mxGeometry x="55" y="207" width="60" height="30" as="geometry" />
        </mxCell>
        <mxCell id="3bQ-jUhXgWFOpYzX4cHb-34" value="&lt;font style=&quot;font-size: 18px; color: rgb(255, 65, 19);&quot;&gt;x&lt;sub style=&quot;&quot;&gt;2&lt;/sub&gt;=F&lt;/font&gt;" style="text;html=1;align=center;verticalAlign=middle;whiteSpace=wrap;rounded=0;" vertex="1" parent="1">
          <mxGeometry x="169" y="205" width="60" height="30" as="geometry" />
        </mxCell>
        <mxCell id="3bQ-jUhXgWFOpYzX4cHb-35" value="&lt;font style=&quot;font-size: 18px; color: rgb(255, 65, 19);&quot;&gt;x&lt;sub style=&quot;&quot;&gt;2&lt;/sub&gt;=F&lt;/font&gt;" style="text;html=1;align=center;verticalAlign=middle;whiteSpace=wrap;rounded=0;" vertex="1" parent="1">
          <mxGeometry x="447" y="205" width="60" height="30" as="geometry" />
        </mxCell>
        <mxCell id="3bQ-jUhXgWFOpYzX4cHb-36" value="&lt;font style=&quot;font-size: 18px; color: rgb(255, 65, 19);&quot;&gt;x&lt;/font&gt;&lt;font style=&quot;color: rgb(255, 65, 19); font-size: 15px;&quot;&gt;&lt;sub&gt;2&lt;/sub&gt;&lt;/font&gt;&lt;font style=&quot;color: rgb(255, 65, 19);&quot;&gt;&lt;span style=&quot;font-size: 18px;&quot;&gt;=T&lt;/span&gt;&lt;/font&gt;" style="text;html=1;align=center;verticalAlign=middle;whiteSpace=wrap;rounded=0;" vertex="1" parent="1">
          <mxGeometry x="329" y="209" width="60" height="30" as="geometry" />
        </mxCell>
        <mxCell id="3bQ-jUhXgWFOpYzX4cHb-37" value="&lt;font style=&quot;font-size: 18px; color: rgb(255, 65, 19);&quot;&gt;x&lt;/font&gt;&lt;font style=&quot;color: rgb(255, 65, 19); font-size: 12.5px;&quot;&gt;&lt;sub&gt;3&lt;/sub&gt;&lt;/font&gt;&lt;font style=&quot;color: rgb(255, 65, 19);&quot;&gt;&lt;span style=&quot;font-size: 18px;&quot;&gt;=T&lt;/span&gt;&lt;/font&gt;" style="text;html=1;align=center;verticalAlign=middle;whiteSpace=wrap;rounded=0;" vertex="1" parent="1">
          <mxGeometry x="6" y="290" width="60" height="30" as="geometry" />
        </mxCell>
        <mxCell id="3bQ-jUhXgWFOpYzX4cHb-39" value="&lt;font style=&quot;font-size: 18px; color: rgb(255, 65, 19);&quot;&gt;x&lt;/font&gt;&lt;font style=&quot;color: rgb(255, 65, 19); font-size: 12.5px;&quot;&gt;&lt;sub&gt;3&lt;/sub&gt;&lt;/font&gt;&lt;font style=&quot;color: rgb(255, 65, 19);&quot;&gt;&lt;span style=&quot;font-size: 18px;&quot;&gt;=T&lt;/span&gt;&lt;/font&gt;" style="text;html=1;align=center;verticalAlign=middle;whiteSpace=wrap;rounded=0;" vertex="1" parent="1">
          <mxGeometry x="134" y="290" width="60" height="30" as="geometry" />
        </mxCell>
        <mxCell id="3bQ-jUhXgWFOpYzX4cHb-40" value="&lt;font style=&quot;font-size: 18px; color: rgb(255, 65, 19);&quot;&gt;x&lt;/font&gt;&lt;font style=&quot;color: rgb(255, 65, 19); font-size: 12.5px;&quot;&gt;&lt;sub&gt;3&lt;/sub&gt;&lt;/font&gt;&lt;font style=&quot;color: rgb(255, 65, 19);&quot;&gt;&lt;span style=&quot;font-size: 18px;&quot;&gt;=T&lt;/span&gt;&lt;/font&gt;" style="text;html=1;align=center;verticalAlign=middle;whiteSpace=wrap;rounded=0;" vertex="1" parent="1">
          <mxGeometry x="276" y="292" width="60" height="30" as="geometry" />
        </mxCell>
        <mxCell id="3bQ-jUhXgWFOpYzX4cHb-41" value="&lt;font style=&quot;font-size: 18px; color: rgb(255, 65, 19);&quot;&gt;x&lt;/font&gt;&lt;font style=&quot;color: rgb(255, 65, 19); font-size: 12.5px;&quot;&gt;&lt;sub&gt;3&lt;/sub&gt;&lt;/font&gt;&lt;font style=&quot;color: rgb(255, 65, 19);&quot;&gt;&lt;span style=&quot;font-size: 18px;&quot;&gt;=T&lt;/span&gt;&lt;/font&gt;" style="text;html=1;align=center;verticalAlign=middle;whiteSpace=wrap;rounded=0;" vertex="1" parent="1">
          <mxGeometry x="418" y="295" width="60" height="30" as="geometry" />
        </mxCell>
        <mxCell id="3bQ-jUhXgWFOpYzX4cHb-42" value="&lt;font style=&quot;font-size: 18px; color: rgb(255, 65, 19);&quot;&gt;x&lt;/font&gt;&lt;font style=&quot;color: rgb(255, 65, 19); font-size: 12.5px;&quot;&gt;&lt;sub&gt;3&lt;/sub&gt;&lt;/font&gt;&lt;font style=&quot;color: rgb(255, 65, 19);&quot;&gt;&lt;span style=&quot;font-size: 18px;&quot;&gt;=F&lt;/span&gt;&lt;/font&gt;" style="text;html=1;align=center;verticalAlign=middle;whiteSpace=wrap;rounded=0;" vertex="1" parent="1">
          <mxGeometry x="507" y="295" width="60" height="30" as="geometry" />
        </mxCell>
        <mxCell id="3bQ-jUhXgWFOpYzX4cHb-43" value="&lt;font style=&quot;font-size: 18px; color: rgb(255, 65, 19);&quot;&gt;x&lt;/font&gt;&lt;font style=&quot;color: rgb(255, 65, 19); font-size: 12.5px;&quot;&gt;&lt;sub&gt;3&lt;/sub&gt;&lt;/font&gt;&lt;font style=&quot;color: rgb(255, 65, 19);&quot;&gt;&lt;span style=&quot;font-size: 18px;&quot;&gt;=F&lt;/span&gt;&lt;/font&gt;" style="text;html=1;align=center;verticalAlign=middle;whiteSpace=wrap;rounded=0;" vertex="1" parent="1">
          <mxGeometry x="347" y="292" width="60" height="30" as="geometry" />
        </mxCell>
        <mxCell id="3bQ-jUhXgWFOpYzX4cHb-44" value="&lt;font style=&quot;font-size: 18px; color: rgb(255, 65, 19);&quot;&gt;x&lt;/font&gt;&lt;font style=&quot;color: rgb(255, 65, 19); font-size: 12.5px;&quot;&gt;&lt;sub&gt;3&lt;/sub&gt;&lt;/font&gt;&lt;font style=&quot;color: rgb(255, 65, 19);&quot;&gt;&lt;span style=&quot;font-size: 18px;&quot;&gt;=F&lt;/span&gt;&lt;/font&gt;" style="text;html=1;align=center;verticalAlign=middle;whiteSpace=wrap;rounded=0;" vertex="1" parent="1">
          <mxGeometry x="201" y="295" width="60" height="30" as="geometry" />
        </mxCell>
        <mxCell id="3bQ-jUhXgWFOpYzX4cHb-45" value="&lt;font style=&quot;font-size: 18px; color: rgb(255, 65, 19);&quot;&gt;x&lt;/font&gt;&lt;font style=&quot;color: rgb(255, 65, 19); font-size: 12.5px;&quot;&gt;&lt;sub&gt;3&lt;/sub&gt;&lt;/font&gt;&lt;font style=&quot;color: rgb(255, 65, 19);&quot;&gt;&lt;span style=&quot;font-size: 18px;&quot;&gt;=F&lt;/span&gt;&lt;/font&gt;" style="text;html=1;align=center;verticalAlign=middle;whiteSpace=wrap;rounded=0;" vertex="1" parent="1">
          <mxGeometry x="79" y="290" width="60" height="30" as="geometry" />
        </mxCell>
      </root>
    </mxGraphModel>
  </diagram>
</mxfile>
